<svg width="75" height="75" viewBox="0 0 75 75" fill="none" xmlns="http://www.w3.org/2000/svg">
<path d="M64.8932 0H10.1068C4.52527 0 0.000366211 4.52472 0.000366211 10.1064V64.8932C0.000366211 70.4749 4.52508 74.9996 10.1068 74.9996H37.1272L37.1732 48.1988H30.2104C29.3055 48.1988 28.5711 47.4671 28.5676 46.5623L28.5342 37.9233C28.5307 37.0134 29.2674 36.2741 30.1772 36.2741H37.1274V27.9266C37.1274 18.2394 43.0437 12.9647 51.6853 12.9647H58.7764C59.6836 12.9647 60.4193 13.7002 60.4193 14.6076V21.8921C60.4193 22.7992 59.6842 23.5345 58.7773 23.5351L54.4256 23.5371C49.726 23.5371 48.816 25.7703 48.816 29.0476V36.2742H59.1426C60.1265 36.2742 60.8899 37.1334 60.774 38.1106L59.75 46.7496C59.6521 47.5763 58.951 48.1992 58.1186 48.1992H48.8621L48.816 75H64.8936C70.4751 75 74.9998 70.4753 74.9998 64.8938V10.1064C74.9996 4.52472 70.4749 0 64.8932 0Z" fill="white"/>
</svg>
