<svg width="75" height="75" viewBox="0 0 75 75" fill="none" xmlns="http://www.w3.org/2000/svg">
<g clip-path="url(#clip0_2_71)">
<path d="M72.7891 14.7186C72.4193 14.8266 72.0496 14.9272 71.6799 15.0209C69.4197 15.5915 69.212 14.8385 70.8483 13.177C71.5811 12.4325 72.2286 11.6228 72.7909 10.7482C74.0513 8.787 72.9581 7.93172 70.8137 8.84783C70.0488 9.17463 69.2712 9.47094 68.4828 9.73511C66.2733 10.4771 63.1379 9.35782 61.1691 8.10912C58.6835 6.53293 55.8588 5.74525 52.6938 5.74525C48.2606 5.74525 44.4819 7.30875 41.3556 10.4333C38.2303 13.5594 36.6668 17.3392 36.6668 21.7713C36.6668 22.3775 36.7014 22.9929 36.7698 23.6168C36.8821 24.6324 35.1717 25.3686 32.8636 25.0426C27.8707 24.3377 23.1269 22.8248 18.6314 20.5057C14.1729 18.2059 10.2379 15.3119 6.82717 11.8235C5.19676 10.1563 2.99166 10.2999 2.3829 12.5505C2.01817 13.8996 1.83677 15.3027 1.83677 16.76C1.83677 19.5062 2.48167 22.0533 3.77176 24.4012C4.41335 25.5696 5.16476 26.6274 6.02762 27.5738C7.47897 29.167 7.25687 30.0914 5.23663 29.525C3.21721 28.9585 1.73731 28.1176 1.73731 28.1725C1.73731 28.2274 1.73731 28.2721 1.73731 28.2721C1.73731 32.1413 2.95221 35.541 5.38354 38.468C6.88124 40.2712 8.62118 41.6642 10.6027 42.6453C12.6922 43.6803 13.6655 44.2576 12.4971 44.4088C11.7922 44.5 11.083 44.5455 10.3697 44.5455C9.88685 44.5455 9.3803 44.5236 8.85182 44.4789C8.016 44.408 7.86577 46.1496 9.13296 48.1067C10.1401 49.6617 11.4292 51.0302 12.9996 52.2123C14.5969 53.4153 16.3184 54.2788 18.1612 54.8048C20.4036 55.444 20.8536 56.6082 18.8543 57.807C13.9071 60.7755 8.43219 62.2595 2.43049 62.2595C1.75427 62.2595 1.10923 62.2444 0.493016 62.2148C-0.576631 62.1634 0.140973 63.1054 2.20591 64.187C8.65842 67.5665 15.6462 69.2549 23.1701 69.2549C28.8587 69.2549 34.201 68.3542 39.1963 66.5517C44.1899 64.7492 48.4576 62.3338 51.9967 59.3072C55.5357 56.2806 58.5877 52.7998 61.1516 48.863C63.7148 44.9264 65.6244 40.8165 66.8823 36.5338C68.1385 32.2501 68.7675 27.958 68.7675 23.6575C68.7675 23.27 68.7642 22.9221 68.7583 22.6157C68.7464 22.0399 70.2695 20.4814 71.9697 18.8867C72.7371 18.1666 73.4691 17.4109 74.1682 16.6183C75.7103 14.868 75.0273 14.066 72.7891 14.7186Z" fill="white"/>
</g>
<defs>
<clipPath id="clip0_2_71">
<rect width="75" height="75" fill="white"/>
</clipPath>
</defs>
</svg>
