<svg width="75" height="75" viewBox="0 0 75 75" fill="none" xmlns="http://www.w3.org/2000/svg">
<path d="M72.0767 15.6399C69.3694 12.4217 64.371 11.1089 54.8252 11.1089H20.174C10.4098 11.1089 5.32669 12.5064 2.6296 15.9327C0 19.2733 0 24.1955 0 31.0079V43.9923C0 57.1902 3.12 63.891 20.174 63.891H54.8255C63.1035 63.891 67.6906 62.7327 70.6582 59.8926C73.7015 56.9802 75 52.2249 75 43.9923V31.0079C75 23.8236 74.7965 18.8724 72.0767 15.6399ZM48.1502 39.2927L32.4152 47.5164C32.0635 47.7002 31.6788 47.7914 31.2946 47.7914C30.8596 47.7914 30.4256 47.6743 30.0411 47.4416C29.3173 47.003 28.8752 46.2184 28.8752 45.3721V28.9776C28.8752 28.1327 29.316 27.3489 30.0385 26.91C30.7611 26.4711 31.6599 26.4411 32.4097 26.8306L48.1447 35.0013C48.9452 35.4169 49.448 36.2434 49.4492 37.1451C49.4502 38.0475 48.9496 38.8752 48.1502 39.2927Z" fill="white"/>
</svg>
